<svg width="174" height="50" viewBox="0 0 174 50" fill="none" xmlns="http://www.w3.org/2000/svg">
<mask id="path-1-outside-1_716_28" maskUnits="userSpaceOnUse" x="0.849609" y="0.00799561" width="173" height="50" fill="black">
<rect fill="white" x="0.849609" y="0.00799561" width="173" height="50"/>
<path d="M11.2886 36.806C9.71194 36.806 8.35028 36.462 7.20361 35.774C6.08561 35.086 5.25428 34.1973 4.70961 33.108C4.13628 31.99 3.84961 30.8147 3.84961 29.582C3.84961 28.4067 4.09328 27.2743 4.58061 26.185C5.06794 25.0957 5.74161 24.2213 6.60161 23.562C7.46161 22.9027 8.45061 22.573 9.56861 22.573C9.74061 22.573 9.88394 22.6303 9.99861 22.745C10.1419 22.831 10.2136 22.9457 10.2136 23.089C10.2136 24.0063 10.6436 24.766 11.5036 25.368C12.3636 25.97 13.3669 26.271 14.5136 26.271C16.0903 26.271 17.6526 25.6547 19.2006 24.422C20.7486 23.1893 21.9956 21.3547 22.9416 18.918L23.4146 17.714C23.6153 17.1693 23.9019 16.4097 24.2746 15.435C24.6473 14.4317 24.9626 13.6003 25.2206 12.941C25.7366 11.565 26.6683 10.877 28.0156 10.877C29.3629 10.877 30.0366 11.3643 30.0366 12.339C30.0366 12.597 29.9936 12.8837 29.9076 13.199C29.6209 14.0303 29.4776 14.7183 29.4776 15.263C29.4776 16.1803 29.9076 16.639 30.7676 16.639C31.7423 16.639 32.6023 16.2663 33.3476 15.521C34.1216 14.7757 34.5086 13.7723 34.5086 12.511C34.5086 11.2497 33.9209 10.318 32.7456 9.716C31.5989 9.08533 30.1083 8.77 28.2736 8.77C25.5789 8.77 23.3573 9.27166 21.6086 10.275C19.8599 11.2497 18.9856 12.7117 18.9856 14.661C18.9856 15.2917 19.1433 15.822 19.4586 16.252C19.7739 16.6533 20.1609 16.854 20.6196 16.854C20.7343 17.198 20.7916 17.4703 20.7916 17.671C20.7916 18.359 20.5479 19.0757 20.0606 19.821C19.5733 20.5663 18.8853 21.197 17.9966 21.713C17.1366 22.2003 16.1333 22.444 14.9866 22.444C13.2953 22.444 11.9766 21.8993 11.0306 20.81C10.0846 19.7207 9.61161 18.402 9.61161 16.854C9.61161 14.3313 10.3856 12.0237 11.9336 9.931C13.4816 7.80966 15.6746 6.13266 18.5126 4.89999C21.3793 3.63866 24.7046 3.008 28.4886 3.008C31.4986 3.008 34.0213 3.38066 36.0566 4.12599C38.1206 4.87133 39.6543 5.889 40.6576 7.179C41.6896 8.44033 42.2056 9.85933 42.2056 11.436C42.2056 13.1273 41.6753 14.6467 40.6146 15.994C39.5826 17.3413 38.2639 18.1583 36.6586 18.445C36.2859 18.531 36.0996 18.7173 36.0996 19.004C36.0996 19.1473 36.1569 19.2763 36.2716 19.391C37.6476 20.767 38.3356 22.5587 38.3356 24.766C38.3356 26.8587 37.8769 28.722 36.9596 30.356C36.0423 31.9613 34.8383 33.2083 33.3476 34.097C31.8569 34.9857 30.2659 35.43 28.5746 35.43C26.7113 35.43 25.2206 34.8997 24.1026 33.839C22.9846 32.7783 22.3683 31.345 22.2536 29.539C20.6769 31.9183 18.9569 33.7243 17.0936 34.957C15.2589 36.1897 13.3239 36.806 11.2886 36.806ZM28.9616 26.099C29.9363 26.099 30.7246 25.6977 31.3266 24.895C31.9286 24.0637 32.2296 23.1033 32.2296 22.014C32.2296 21.3833 32.0003 20.853 31.5416 20.423C31.0829 19.9643 30.4093 19.735 29.5206 19.735C28.6033 19.735 27.8723 20.0647 27.3276 20.724C26.7829 21.3833 26.5106 22.1717 26.5106 23.089C26.5106 23.949 26.7113 24.6657 27.1126 25.239C27.5426 25.8123 28.1589 26.099 28.9616 26.099Z"/>
<path d="M48.8242 11.737C47.6776 11.737 46.7603 11.4933 46.0723 11.006C45.3843 10.5187 45.0402 9.74466 45.0402 8.68399C45.0402 6.04666 46.4736 4.72799 49.3403 4.72799C52.0349 4.72799 53.2819 5.88899 53.0812 8.211C52.8519 10.5617 51.4329 11.737 48.8242 11.737ZM44.0513 35C42.6753 35 41.6719 34.5127 41.0412 33.538C40.4106 32.5633 40.0952 31.259 40.0952 29.625C40.0952 27.647 40.4536 25.5113 41.1702 23.218C42.2309 19.8927 43.2342 17.4417 44.1802 15.865C45.1262 14.2883 46.1869 13.5 47.3623 13.5C48.3369 13.5 48.8242 14.145 48.8242 15.435C48.8242 16.037 48.7382 16.6533 48.5662 17.284C48.3942 17.9147 48.1363 18.6743 47.7923 19.563C47.7349 19.7063 47.6202 20.0503 47.4482 20.595C47.2762 21.1397 47.1329 21.627 47.0182 22.057C46.9322 22.487 46.8893 22.874 46.8893 23.218C46.8893 23.906 47.0613 24.4363 47.4053 24.809C47.7493 25.1817 48.2222 25.368 48.8242 25.368C49.4262 25.368 49.9422 25.196 50.3722 24.852C50.8309 24.4793 51.3039 23.9347 51.7913 23.218C51.9633 22.96 52.1926 22.831 52.4793 22.831C52.8519 22.831 53.1816 23.003 53.4683 23.347C53.7836 23.6623 53.8696 23.9633 53.7262 24.25C53.4682 24.68 53.1673 25.282 52.8232 26.056C52.0206 27.7187 51.2609 29.152 50.5443 30.356C49.8276 31.56 48.9103 32.635 47.7923 33.581C46.6743 34.527 45.4273 35 44.0513 35Z"/>
<path d="M68.7373 23.218C68.9093 22.96 69.1386 22.831 69.4253 22.831C69.8266 22.831 70.1706 23.003 70.4573 23.347C70.7726 23.691 70.8443 24.0063 70.6723 24.293L69.8553 25.884C69.0526 27.5467 68.2643 28.9943 67.4903 30.227C66.7449 31.4597 65.7703 32.5633 64.5663 33.538C63.3909 34.5127 62.0579 35 60.5673 35C58.9333 35 57.7293 34.57 56.9553 33.71C56.2099 32.8213 55.8373 31.7463 55.8373 30.485C55.8373 29.453 55.9949 28.4353 56.3103 27.432C56.6543 26.4 57.1273 25.2103 57.7293 23.863C58.1306 22.9457 58.4173 22.229 58.5893 21.713C58.7613 21.197 58.8473 20.7527 58.8473 20.38C58.8473 20.0933 58.6609 19.735 58.2883 19.305C57.9156 18.875 57.3423 18.5167 56.5683 18.23C56.0523 19.348 55.0919 21.369 53.6873 24.293C53.5726 24.5797 53.3433 24.723 52.9993 24.723C52.6839 24.723 52.3686 24.6083 52.0533 24.379C51.7666 24.121 51.6233 23.8487 51.6233 23.562C51.6233 23.4187 51.6663 23.304 51.7523 23.218C52.5263 22.1287 53.4006 20.251 54.3753 17.585C53.9166 17.413 53.5583 17.155 53.3003 16.811C53.0709 16.4383 52.9563 15.8937 52.9563 15.177C52.9563 14.231 53.3146 13.3567 54.0313 12.554C54.7766 11.7227 55.6939 11.307 56.7833 11.307C58.0733 11.307 59.3489 11.565 60.6103 12.081C61.9003 12.597 62.9466 13.2563 63.7493 14.059C64.5519 14.833 64.9533 15.607 64.9533 16.381C64.9533 16.9257 64.8673 17.4417 64.6953 17.929C64.5519 18.4163 64.3369 19.004 64.0503 19.692C63.7349 20.4373 63.4913 21.0823 63.3193 21.627C63.1759 22.143 63.1043 22.702 63.1043 23.304C63.1043 23.9347 63.3193 24.4507 63.7493 24.852C64.1793 25.2247 64.8529 25.411 65.7703 25.411C66.3723 25.411 66.8883 25.239 67.3183 24.895C67.7769 24.5223 68.2499 23.9633 68.7373 23.218Z"/>
<path d="M72.7591 35C71.1251 35 69.8925 34.441 69.0611 33.323C68.2585 32.205 67.8571 30.7287 67.8571 28.894C67.8571 26.6293 68.2871 24.3073 69.1471 21.928C70.0071 19.52 71.2685 17.5133 72.9311 15.908C74.6225 14.3027 76.6291 13.5 78.9511 13.5C79.9258 13.5 80.6568 13.629 81.1441 13.887C81.6315 14.145 82.0471 14.5033 82.3911 14.962C82.7351 15.3633 83.0505 15.564 83.3371 15.564C83.5091 15.564 83.6381 15.435 83.7241 15.177C83.8388 14.919 83.9965 14.446 84.1971 13.758C84.6558 12.038 85.2148 10.3753 85.8741 8.77C86.6195 6.96399 87.3648 5.73133 88.1101 5.07199C88.8555 4.41266 89.6151 4.08299 90.3891 4.08299C90.8765 4.08299 91.2491 4.24066 91.5071 4.556C91.7938 4.87133 91.9371 5.31566 91.9371 5.88899C91.9371 6.54833 91.7508 7.29366 91.3781 8.125L86.5191 20.552C85.9458 21.7273 85.6591 22.745 85.6591 23.605C85.6591 24.809 86.2468 25.411 87.4221 25.411C88.7695 25.411 89.9018 24.68 90.8191 23.218C90.9911 22.96 91.2205 22.831 91.5071 22.831C91.8798 22.831 92.2095 23.003 92.4961 23.347C92.8115 23.691 92.8975 24.0063 92.7541 24.293L91.7221 26.357C90.8335 28.1917 90.0451 29.6823 89.3571 30.829C88.6691 31.947 87.8378 32.9217 86.8631 33.753C85.8885 34.5843 84.7705 35 83.5091 35C82.3338 35 81.4021 34.5413 80.7141 33.624C80.0548 32.7067 79.7251 31.517 79.7251 30.055C79.7251 29.797 79.7538 29.3527 79.8111 28.722H79.6391C78.6931 30.5853 77.6181 32.1047 76.4141 33.28C75.2101 34.4267 73.9918 35 72.7591 35ZM76.6721 26.099C77.3601 26.099 77.9765 25.8983 78.5211 25.497C79.0945 25.067 79.5388 24.5367 79.8541 23.906C80.1695 23.2753 80.3271 22.659 80.3271 22.057C80.3271 21.3977 80.1265 20.853 79.7251 20.423C79.3525 19.993 78.7648 19.778 77.9621 19.778C76.9588 19.778 76.1131 20.1937 75.4251 21.025C74.7658 21.8563 74.4361 22.7737 74.4361 23.777C74.4361 24.465 74.6081 25.024 74.9521 25.454C75.3248 25.884 75.8981 26.099 76.6721 26.099Z"/>
<path d="M95.535 36.806C93.8724 36.806 92.482 36.462 91.364 35.774C90.246 35.086 89.429 34.1973 88.913 33.108C88.3684 32.0187 88.096 30.8433 88.096 29.582C88.096 28.4067 88.3397 27.2743 88.827 26.185C89.3144 25.0957 89.988 24.2213 90.848 23.562C91.708 22.9027 92.697 22.573 93.815 22.573C93.987 22.573 94.1304 22.6303 94.245 22.745C94.3884 22.831 94.46 22.9457 94.46 23.089C94.46 24.035 94.8613 24.809 95.664 25.411C96.4667 25.9843 97.47 26.271 98.674 26.271C100.136 26.271 101.612 25.6547 103.103 24.422C104.594 23.1893 105.812 21.3547 106.758 18.918L107.231 17.714C107.432 17.1693 107.718 16.4097 108.091 15.435C108.464 14.4317 108.779 13.6003 109.037 12.941C109.553 11.565 110.485 10.877 111.832 10.877C113.151 10.877 113.81 11.393 113.81 12.425C113.81 12.8837 113.652 13.543 113.337 14.403C113.05 15.2343 112.62 16.381 112.047 17.843C111.359 19.5343 110.829 20.9103 110.456 21.971C110.112 23.0317 109.94 23.8917 109.94 24.551C109.94 25.153 110.112 25.6403 110.456 26.013C110.8 26.357 111.316 26.529 112.004 26.529C113.208 26.529 114.297 25.9843 115.272 24.895C116.275 23.8057 117.049 22.4297 117.594 20.767C118.167 19.0757 118.454 17.37 118.454 15.65C118.454 13.586 117.866 11.9233 116.691 10.662C115.544 9.40066 113.595 8.77 110.843 8.77C108.607 8.77 106.701 9.31466 105.124 10.404C103.576 11.4647 102.802 13.027 102.802 15.091C102.802 15.7217 102.96 16.252 103.275 16.682C103.59 17.0833 103.977 17.284 104.436 17.284C104.637 17.3127 104.737 17.4703 104.737 17.757C104.737 18.2443 104.465 18.9037 103.92 19.735C103.375 20.5663 102.644 21.2973 101.727 21.928C100.838 22.5587 99.8637 22.874 98.803 22.874C97.1117 22.874 95.793 22.272 94.847 21.068C93.901 19.8353 93.428 18.3447 93.428 16.596C93.428 14.1593 94.1447 11.909 95.578 9.84499C97.0114 7.75233 99.0037 6.08966 101.555 4.85699C104.106 3.62433 106.987 3.008 110.198 3.008C115.329 3.008 119.056 4.28366 121.378 6.835C123.7 9.38633 124.861 12.683 124.861 16.725C124.861 19.735 124.259 22.702 123.055 25.626C121.88 28.5213 120.303 30.8863 118.325 32.721C116.347 34.527 114.24 35.43 112.004 35.43C110.255 35.43 108.851 34.8997 107.79 33.839C106.758 32.7783 106.185 31.345 106.07 29.539C104.837 31.8323 103.318 33.624 101.512 34.914C99.706 36.1753 97.7137 36.806 95.535 36.806Z"/>
<path d="M146.294 23.218C146.409 23.0173 146.624 22.917 146.939 22.917C147.341 22.917 147.699 23.0603 148.014 23.347C148.33 23.6337 148.402 23.949 148.23 24.293C147.427 25.9843 146.438 27.389 145.262 28.507C144.087 29.625 142.568 30.184 140.704 30.184H140.189C139.099 31.6747 137.809 32.85 136.318 33.71C134.856 34.57 133.337 35 131.76 35C129.782 35 128.177 34.355 126.945 33.065C125.712 31.7463 125.095 29.9833 125.095 27.776C125.095 25.5973 125.612 23.4043 126.644 21.197C127.704 18.961 129.137 17.1263 130.943 15.693C132.749 14.231 134.742 13.5 136.921 13.5C138.813 13.5 140.332 14.102 141.479 15.306C142.625 16.4813 143.199 18.3447 143.199 20.896C143.199 22.4153 142.983 23.8917 142.553 25.325H142.855C144.173 25.325 145.32 24.6227 146.294 23.218ZM134.212 26.099C134.9 26.099 135.516 25.8983 136.061 25.497C136.634 25.067 137.078 24.5367 137.393 23.906C137.709 23.2753 137.867 22.659 137.867 22.057C137.867 21.3977 137.666 20.853 137.264 20.423C136.892 19.993 136.304 19.778 135.501 19.778C134.498 19.778 133.653 20.1937 132.965 21.025C132.305 21.8563 131.975 22.7737 131.975 23.777C131.975 24.465 132.148 25.024 132.492 25.454C132.864 25.884 133.438 26.099 134.212 26.099Z"/>
<path d="M167.992 23.218C168.106 23.0173 168.321 22.917 168.637 22.917C169.038 22.917 169.396 23.0603 169.712 23.347C170.027 23.6337 170.099 23.949 169.927 24.293L169.067 26.099C168.149 28.1057 167.361 29.6967 166.702 30.872C166.042 32.0473 165.254 33.0363 164.337 33.839C163.448 34.613 162.43 35 161.284 35C160.653 35 160.151 34.6847 159.779 34.054C158.403 38.4113 156.869 41.5217 155.178 43.385C153.486 45.277 151.408 46.223 148.943 46.223C146.678 46.223 144.929 45.6353 143.697 44.46C142.435 43.2847 141.805 41.6507 141.805 39.558C141.805 38.2393 142.048 37.107 142.536 36.161C142.994 35.2437 143.51 34.5987 144.084 34.226C144.628 33.8247 144.915 33.796 144.944 34.14C145.058 35.2293 145.531 36.0893 146.363 36.72C147.223 37.3793 148.369 37.7233 149.803 37.752C151.064 37.752 152.268 37.3363 153.415 36.505C154.59 35.7023 155.522 34.6847 156.21 33.452C156.926 32.1907 157.285 30.9293 157.285 29.668C157.285 29.324 157.156 29.152 156.898 29.152C156.611 29.152 156.353 29.367 156.124 29.797C155.55 31.259 154.719 32.4343 153.63 33.323C152.54 34.183 151.437 34.613 150.319 34.613C148.857 34.613 147.667 34.0683 146.75 32.979C145.861 31.8897 145.417 30.528 145.417 28.894C145.417 26.6293 145.847 24.3073 146.707 21.928C147.567 19.52 148.828 17.5133 150.491 15.908C152.182 14.3027 154.189 13.5 156.511 13.5C157.485 13.5 158.216 13.6147 158.704 13.844C159.191 14.0447 159.607 14.317 159.951 14.661C160.323 14.9763 160.639 15.134 160.897 15.134C161.183 15.134 161.427 15.0767 161.628 14.962C161.857 14.8473 162.115 14.6753 162.402 14.446C162.774 14.1307 163.118 13.9013 163.434 13.758C163.749 13.586 164.15 13.5 164.638 13.5C165.641 13.5 166.143 14.0303 166.143 15.091C166.143 15.4637 166.057 15.8793 165.885 16.338C165.713 16.768 165.426 17.3843 165.025 18.187C164.05 20.2223 163.262 22.1287 162.66 23.906C162.516 24.5367 162.445 25.0097 162.445 25.325C162.445 25.8983 162.574 26.314 162.832 26.572C163.09 26.83 163.419 26.959 163.821 26.959C164.881 26.959 166.272 25.712 167.992 23.218ZM154.232 26.099C154.92 26.099 155.536 25.8983 156.081 25.497C156.654 25.067 157.098 24.5367 157.414 23.906C157.729 23.2753 157.887 22.659 157.887 22.057C157.887 21.3977 157.686 20.853 157.285 20.423C156.912 19.993 156.324 19.778 155.522 19.778C154.518 19.778 153.673 20.1937 152.985 21.025C152.325 21.8563 151.996 22.7737 151.996 23.777C151.996 24.465 152.168 25.024 152.512 25.454C152.884 25.884 153.458 26.099 154.232 26.099Z"/>
</mask>
<path d="M11.2886 36.806C9.71194 36.806 8.35028 36.462 7.20361 35.774C6.08561 35.086 5.25428 34.1973 4.70961 33.108C4.13628 31.99 3.84961 30.8147 3.84961 29.582C3.84961 28.4067 4.09328 27.2743 4.58061 26.185C5.06794 25.0957 5.74161 24.2213 6.60161 23.562C7.46161 22.9027 8.45061 22.573 9.56861 22.573C9.74061 22.573 9.88394 22.6303 9.99861 22.745C10.1419 22.831 10.2136 22.9457 10.2136 23.089C10.2136 24.0063 10.6436 24.766 11.5036 25.368C12.3636 25.97 13.3669 26.271 14.5136 26.271C16.0903 26.271 17.6526 25.6547 19.2006 24.422C20.7486 23.1893 21.9956 21.3547 22.9416 18.918L23.4146 17.714C23.6153 17.1693 23.9019 16.4097 24.2746 15.435C24.6473 14.4317 24.9626 13.6003 25.2206 12.941C25.7366 11.565 26.6683 10.877 28.0156 10.877C29.3629 10.877 30.0366 11.3643 30.0366 12.339C30.0366 12.597 29.9936 12.8837 29.9076 13.199C29.6209 14.0303 29.4776 14.7183 29.4776 15.263C29.4776 16.1803 29.9076 16.639 30.7676 16.639C31.7423 16.639 32.6023 16.2663 33.3476 15.521C34.1216 14.7757 34.5086 13.7723 34.5086 12.511C34.5086 11.2497 33.9209 10.318 32.7456 9.716C31.5989 9.08533 30.1083 8.77 28.2736 8.77C25.5789 8.77 23.3573 9.27166 21.6086 10.275C19.8599 11.2497 18.9856 12.7117 18.9856 14.661C18.9856 15.2917 19.1433 15.822 19.4586 16.252C19.7739 16.6533 20.1609 16.854 20.6196 16.854C20.7343 17.198 20.7916 17.4703 20.7916 17.671C20.7916 18.359 20.5479 19.0757 20.0606 19.821C19.5733 20.5663 18.8853 21.197 17.9966 21.713C17.1366 22.2003 16.1333 22.444 14.9866 22.444C13.2953 22.444 11.9766 21.8993 11.0306 20.81C10.0846 19.7207 9.61161 18.402 9.61161 16.854C9.61161 14.3313 10.3856 12.0237 11.9336 9.931C13.4816 7.80966 15.6746 6.13266 18.5126 4.89999C21.3793 3.63866 24.7046 3.008 28.4886 3.008C31.4986 3.008 34.0213 3.38066 36.0566 4.12599C38.1206 4.87133 39.6543 5.889 40.6576 7.179C41.6896 8.44033 42.2056 9.85933 42.2056 11.436C42.2056 13.1273 41.6753 14.6467 40.6146 15.994C39.5826 17.3413 38.2639 18.1583 36.6586 18.445C36.2859 18.531 36.0996 18.7173 36.0996 19.004C36.0996 19.1473 36.1569 19.2763 36.2716 19.391C37.6476 20.767 38.3356 22.5587 38.3356 24.766C38.3356 26.8587 37.8769 28.722 36.9596 30.356C36.0423 31.9613 34.8383 33.2083 33.3476 34.097C31.8569 34.9857 30.2659 35.43 28.5746 35.43C26.7113 35.43 25.2206 34.8997 24.1026 33.839C22.9846 32.7783 22.3683 31.345 22.2536 29.539C20.6769 31.9183 18.9569 33.7243 17.0936 34.957C15.2589 36.1897 13.3239 36.806 11.2886 36.806ZM28.9616 26.099C29.9363 26.099 30.7246 25.6977 31.3266 24.895C31.9286 24.0637 32.2296 23.1033 32.2296 22.014C32.2296 21.3833 32.0003 20.853 31.5416 20.423C31.0829 19.9643 30.4093 19.735 29.5206 19.735C28.6033 19.735 27.8723 20.0647 27.3276 20.724C26.7829 21.3833 26.5106 22.1717 26.5106 23.089C26.5106 23.949 26.7113 24.6657 27.1126 25.239C27.5426 25.8123 28.1589 26.099 28.9616 26.099Z" fill="#FF0000"/>
<path d="M48.8242 11.737C47.6776 11.737 46.7603 11.4933 46.0723 11.006C45.3843 10.5187 45.0402 9.74466 45.0402 8.68399C45.0402 6.04666 46.4736 4.72799 49.3403 4.72799C52.0349 4.72799 53.2819 5.88899 53.0812 8.211C52.8519 10.5617 51.4329 11.737 48.8242 11.737ZM44.0513 35C42.6753 35 41.6719 34.5127 41.0412 33.538C40.4106 32.5633 40.0952 31.259 40.0952 29.625C40.0952 27.647 40.4536 25.5113 41.1702 23.218C42.2309 19.8927 43.2342 17.4417 44.1802 15.865C45.1262 14.2883 46.1869 13.5 47.3623 13.5C48.3369 13.5 48.8242 14.145 48.8242 15.435C48.8242 16.037 48.7382 16.6533 48.5662 17.284C48.3942 17.9147 48.1363 18.6743 47.7923 19.563C47.7349 19.7063 47.6202 20.0503 47.4482 20.595C47.2762 21.1397 47.1329 21.627 47.0182 22.057C46.9322 22.487 46.8893 22.874 46.8893 23.218C46.8893 23.906 47.0613 24.4363 47.4053 24.809C47.7493 25.1817 48.2222 25.368 48.8242 25.368C49.4262 25.368 49.9422 25.196 50.3722 24.852C50.8309 24.4793 51.3039 23.9347 51.7913 23.218C51.9633 22.96 52.1926 22.831 52.4793 22.831C52.8519 22.831 53.1816 23.003 53.4683 23.347C53.7836 23.6623 53.8696 23.9633 53.7262 24.25C53.4682 24.68 53.1673 25.282 52.8232 26.056C52.0206 27.7187 51.2609 29.152 50.5443 30.356C49.8276 31.56 48.9103 32.635 47.7923 33.581C46.6743 34.527 45.4273 35 44.0513 35Z" fill="#FF0000"/>
<path d="M68.7373 23.218C68.9093 22.96 69.1386 22.831 69.4253 22.831C69.8266 22.831 70.1706 23.003 70.4573 23.347C70.7726 23.691 70.8443 24.0063 70.6723 24.293L69.8553 25.884C69.0526 27.5467 68.2643 28.9943 67.4903 30.227C66.7449 31.4597 65.7703 32.5633 64.5663 33.538C63.3909 34.5127 62.0579 35 60.5673 35C58.9333 35 57.7293 34.57 56.9553 33.71C56.2099 32.8213 55.8373 31.7463 55.8373 30.485C55.8373 29.453 55.9949 28.4353 56.3103 27.432C56.6543 26.4 57.1273 25.2103 57.7293 23.863C58.1306 22.9457 58.4173 22.229 58.5893 21.713C58.7613 21.197 58.8473 20.7527 58.8473 20.38C58.8473 20.0933 58.6609 19.735 58.2883 19.305C57.9156 18.875 57.3423 18.5167 56.5683 18.23C56.0523 19.348 55.0919 21.369 53.6873 24.293C53.5726 24.5797 53.3433 24.723 52.9993 24.723C52.6839 24.723 52.3686 24.6083 52.0533 24.379C51.7666 24.121 51.6233 23.8487 51.6233 23.562C51.6233 23.4187 51.6663 23.304 51.7523 23.218C52.5263 22.1287 53.4006 20.251 54.3753 17.585C53.9166 17.413 53.5583 17.155 53.3003 16.811C53.0709 16.4383 52.9563 15.8937 52.9563 15.177C52.9563 14.231 53.3146 13.3567 54.0313 12.554C54.7766 11.7227 55.6939 11.307 56.7833 11.307C58.0733 11.307 59.3489 11.565 60.6103 12.081C61.9003 12.597 62.9466 13.2563 63.7493 14.059C64.5519 14.833 64.9533 15.607 64.9533 16.381C64.9533 16.9257 64.8673 17.4417 64.6953 17.929C64.5519 18.4163 64.3369 19.004 64.0503 19.692C63.7349 20.4373 63.4913 21.0823 63.3193 21.627C63.1759 22.143 63.1043 22.702 63.1043 23.304C63.1043 23.9347 63.3193 24.4507 63.7493 24.852C64.1793 25.2247 64.8529 25.411 65.7703 25.411C66.3723 25.411 66.8883 25.239 67.3183 24.895C67.7769 24.5223 68.2499 23.9633 68.7373 23.218Z" fill="#FF0000"/>
<path d="M72.7591 35C71.1251 35 69.8925 34.441 69.0611 33.323C68.2585 32.205 67.8571 30.7287 67.8571 28.894C67.8571 26.6293 68.2871 24.3073 69.1471 21.928C70.0071 19.52 71.2685 17.5133 72.9311 15.908C74.6225 14.3027 76.6291 13.5 78.9511 13.5C79.9258 13.5 80.6568 13.629 81.1441 13.887C81.6315 14.145 82.0471 14.5033 82.3911 14.962C82.7351 15.3633 83.0505 15.564 83.3371 15.564C83.5091 15.564 83.6381 15.435 83.7241 15.177C83.8388 14.919 83.9965 14.446 84.1971 13.758C84.6558 12.038 85.2148 10.3753 85.8741 8.77C86.6195 6.96399 87.3648 5.73133 88.1101 5.07199C88.8555 4.41266 89.6151 4.08299 90.3891 4.08299C90.8765 4.08299 91.2491 4.24066 91.5071 4.556C91.7938 4.87133 91.9371 5.31566 91.9371 5.88899C91.9371 6.54833 91.7508 7.29366 91.3781 8.125L86.5191 20.552C85.9458 21.7273 85.6591 22.745 85.6591 23.605C85.6591 24.809 86.2468 25.411 87.4221 25.411C88.7695 25.411 89.9018 24.68 90.8191 23.218C90.9911 22.96 91.2205 22.831 91.5071 22.831C91.8798 22.831 92.2095 23.003 92.4961 23.347C92.8115 23.691 92.8975 24.0063 92.7541 24.293L91.7221 26.357C90.8335 28.1917 90.0451 29.6823 89.3571 30.829C88.6691 31.947 87.8378 32.9217 86.8631 33.753C85.8885 34.5843 84.7705 35 83.5091 35C82.3338 35 81.4021 34.5413 80.7141 33.624C80.0548 32.7067 79.7251 31.517 79.7251 30.055C79.7251 29.797 79.7538 29.3527 79.8111 28.722H79.6391C78.6931 30.5853 77.6181 32.1047 76.4141 33.28C75.2101 34.4267 73.9918 35 72.7591 35ZM76.6721 26.099C77.3601 26.099 77.9765 25.8983 78.5211 25.497C79.0945 25.067 79.5388 24.5367 79.8541 23.906C80.1695 23.2753 80.3271 22.659 80.3271 22.057C80.3271 21.3977 80.1265 20.853 79.7251 20.423C79.3525 19.993 78.7648 19.778 77.9621 19.778C76.9588 19.778 76.1131 20.1937 75.4251 21.025C74.7658 21.8563 74.4361 22.7737 74.4361 23.777C74.4361 24.465 74.6081 25.024 74.9521 25.454C75.3248 25.884 75.8981 26.099 76.6721 26.099Z" fill="#FF0000"/>
<path d="M95.535 36.806C93.8724 36.806 92.482 36.462 91.364 35.774C90.246 35.086 89.429 34.1973 88.913 33.108C88.3684 32.0187 88.096 30.8433 88.096 29.582C88.096 28.4067 88.3397 27.2743 88.827 26.185C89.3144 25.0957 89.988 24.2213 90.848 23.562C91.708 22.9027 92.697 22.573 93.815 22.573C93.987 22.573 94.1304 22.6303 94.245 22.745C94.3884 22.831 94.46 22.9457 94.46 23.089C94.46 24.035 94.8613 24.809 95.664 25.411C96.4667 25.9843 97.47 26.271 98.674 26.271C100.136 26.271 101.612 25.6547 103.103 24.422C104.594 23.1893 105.812 21.3547 106.758 18.918L107.231 17.714C107.432 17.1693 107.718 16.4097 108.091 15.435C108.464 14.4317 108.779 13.6003 109.037 12.941C109.553 11.565 110.485 10.877 111.832 10.877C113.151 10.877 113.81 11.393 113.81 12.425C113.81 12.8837 113.652 13.543 113.337 14.403C113.05 15.2343 112.62 16.381 112.047 17.843C111.359 19.5343 110.829 20.9103 110.456 21.971C110.112 23.0317 109.94 23.8917 109.94 24.551C109.94 25.153 110.112 25.6403 110.456 26.013C110.8 26.357 111.316 26.529 112.004 26.529C113.208 26.529 114.297 25.9843 115.272 24.895C116.275 23.8057 117.049 22.4297 117.594 20.767C118.167 19.0757 118.454 17.37 118.454 15.65C118.454 13.586 117.866 11.9233 116.691 10.662C115.544 9.40066 113.595 8.77 110.843 8.77C108.607 8.77 106.701 9.31466 105.124 10.404C103.576 11.4647 102.802 13.027 102.802 15.091C102.802 15.7217 102.96 16.252 103.275 16.682C103.59 17.0833 103.977 17.284 104.436 17.284C104.637 17.3127 104.737 17.4703 104.737 17.757C104.737 18.2443 104.465 18.9037 103.92 19.735C103.375 20.5663 102.644 21.2973 101.727 21.928C100.838 22.5587 99.8637 22.874 98.803 22.874C97.1117 22.874 95.793 22.272 94.847 21.068C93.901 19.8353 93.428 18.3447 93.428 16.596C93.428 14.1593 94.1447 11.909 95.578 9.84499C97.0114 7.75233 99.0037 6.08966 101.555 4.85699C104.106 3.62433 106.987 3.008 110.198 3.008C115.329 3.008 119.056 4.28366 121.378 6.835C123.7 9.38633 124.861 12.683 124.861 16.725C124.861 19.735 124.259 22.702 123.055 25.626C121.88 28.5213 120.303 30.8863 118.325 32.721C116.347 34.527 114.24 35.43 112.004 35.43C110.255 35.43 108.851 34.8997 107.79 33.839C106.758 32.7783 106.185 31.345 106.07 29.539C104.837 31.8323 103.318 33.624 101.512 34.914C99.706 36.1753 97.7137 36.806 95.535 36.806Z" fill="#FF0000"/>
<path d="M146.294 23.218C146.409 23.0173 146.624 22.917 146.939 22.917C147.341 22.917 147.699 23.0603 148.014 23.347C148.33 23.6337 148.402 23.949 148.23 24.293C147.427 25.9843 146.438 27.389 145.262 28.507C144.087 29.625 142.568 30.184 140.704 30.184H140.189C139.099 31.6747 137.809 32.85 136.318 33.71C134.856 34.57 133.337 35 131.76 35C129.782 35 128.177 34.355 126.945 33.065C125.712 31.7463 125.095 29.9833 125.095 27.776C125.095 25.5973 125.612 23.4043 126.644 21.197C127.704 18.961 129.137 17.1263 130.943 15.693C132.749 14.231 134.742 13.5 136.921 13.5C138.813 13.5 140.332 14.102 141.479 15.306C142.625 16.4813 143.199 18.3447 143.199 20.896C143.199 22.4153 142.983 23.8917 142.553 25.325H142.855C144.173 25.325 145.32 24.6227 146.294 23.218ZM134.212 26.099C134.9 26.099 135.516 25.8983 136.061 25.497C136.634 25.067 137.078 24.5367 137.393 23.906C137.709 23.2753 137.867 22.659 137.867 22.057C137.867 21.3977 137.666 20.853 137.264 20.423C136.892 19.993 136.304 19.778 135.501 19.778C134.498 19.778 133.653 20.1937 132.965 21.025C132.305 21.8563 131.975 22.7737 131.975 23.777C131.975 24.465 132.148 25.024 132.492 25.454C132.864 25.884 133.438 26.099 134.212 26.099Z" fill="#FF0000"/>
<path d="M167.992 23.218C168.106 23.0173 168.321 22.917 168.637 22.917C169.038 22.917 169.396 23.0603 169.712 23.347C170.027 23.6337 170.099 23.949 169.927 24.293L169.067 26.099C168.149 28.1057 167.361 29.6967 166.702 30.872C166.042 32.0473 165.254 33.0363 164.337 33.839C163.448 34.613 162.43 35 161.284 35C160.653 35 160.151 34.6847 159.779 34.054C158.403 38.4113 156.869 41.5217 155.178 43.385C153.486 45.277 151.408 46.223 148.943 46.223C146.678 46.223 144.929 45.6353 143.697 44.46C142.435 43.2847 141.805 41.6507 141.805 39.558C141.805 38.2393 142.048 37.107 142.536 36.161C142.994 35.2437 143.51 34.5987 144.084 34.226C144.628 33.8247 144.915 33.796 144.944 34.14C145.058 35.2293 145.531 36.0893 146.363 36.72C147.223 37.3793 148.369 37.7233 149.803 37.752C151.064 37.752 152.268 37.3363 153.415 36.505C154.59 35.7023 155.522 34.6847 156.21 33.452C156.926 32.1907 157.285 30.9293 157.285 29.668C157.285 29.324 157.156 29.152 156.898 29.152C156.611 29.152 156.353 29.367 156.124 29.797C155.55 31.259 154.719 32.4343 153.63 33.323C152.54 34.183 151.437 34.613 150.319 34.613C148.857 34.613 147.667 34.0683 146.75 32.979C145.861 31.8897 145.417 30.528 145.417 28.894C145.417 26.6293 145.847 24.3073 146.707 21.928C147.567 19.52 148.828 17.5133 150.491 15.908C152.182 14.3027 154.189 13.5 156.511 13.5C157.485 13.5 158.216 13.6147 158.704 13.844C159.191 14.0447 159.607 14.317 159.951 14.661C160.323 14.9763 160.639 15.134 160.897 15.134C161.183 15.134 161.427 15.0767 161.628 14.962C161.857 14.8473 162.115 14.6753 162.402 14.446C162.774 14.1307 163.118 13.9013 163.434 13.758C163.749 13.586 164.15 13.5 164.638 13.5C165.641 13.5 166.143 14.0303 166.143 15.091C166.143 15.4637 166.057 15.8793 165.885 16.338C165.713 16.768 165.426 17.3843 165.025 18.187C164.05 20.2223 163.262 22.1287 162.66 23.906C162.516 24.5367 162.445 25.0097 162.445 25.325C162.445 25.8983 162.574 26.314 162.832 26.572C163.09 26.83 163.419 26.959 163.821 26.959C164.881 26.959 166.272 25.712 167.992 23.218ZM154.232 26.099C154.92 26.099 155.536 25.8983 156.081 25.497C156.654 25.067 157.098 24.5367 157.414 23.906C157.729 23.2753 157.887 22.659 157.887 22.057C157.887 21.3977 157.686 20.853 157.285 20.423C156.912 19.993 156.324 19.778 155.522 19.778C154.518 19.778 153.673 20.1937 152.985 21.025C152.325 21.8563 151.996 22.7737 151.996 23.777C151.996 24.465 152.168 25.024 152.512 25.454C152.884 25.884 153.458 26.099 154.232 26.099Z" fill="#FF0000"/>
<path d="M11.2886 36.806C9.71194 36.806 8.35028 36.462 7.20361 35.774C6.08561 35.086 5.25428 34.1973 4.70961 33.108C4.13628 31.99 3.84961 30.8147 3.84961 29.582C3.84961 28.4067 4.09328 27.2743 4.58061 26.185C5.06794 25.0957 5.74161 24.2213 6.60161 23.562C7.46161 22.9027 8.45061 22.573 9.56861 22.573C9.74061 22.573 9.88394 22.6303 9.99861 22.745C10.1419 22.831 10.2136 22.9457 10.2136 23.089C10.2136 24.0063 10.6436 24.766 11.5036 25.368C12.3636 25.97 13.3669 26.271 14.5136 26.271C16.0903 26.271 17.6526 25.6547 19.2006 24.422C20.7486 23.1893 21.9956 21.3547 22.9416 18.918L23.4146 17.714C23.6153 17.1693 23.9019 16.4097 24.2746 15.435C24.6473 14.4317 24.9626 13.6003 25.2206 12.941C25.7366 11.565 26.6683 10.877 28.0156 10.877C29.3629 10.877 30.0366 11.3643 30.0366 12.339C30.0366 12.597 29.9936 12.8837 29.9076 13.199C29.6209 14.0303 29.4776 14.7183 29.4776 15.263C29.4776 16.1803 29.9076 16.639 30.7676 16.639C31.7423 16.639 32.6023 16.2663 33.3476 15.521C34.1216 14.7757 34.5086 13.7723 34.5086 12.511C34.5086 11.2497 33.9209 10.318 32.7456 9.716C31.5989 9.08533 30.1083 8.77 28.2736 8.77C25.5789 8.77 23.3573 9.27166 21.6086 10.275C19.8599 11.2497 18.9856 12.7117 18.9856 14.661C18.9856 15.2917 19.1433 15.822 19.4586 16.252C19.7739 16.6533 20.1609 16.854 20.6196 16.854C20.7343 17.198 20.7916 17.4703 20.7916 17.671C20.7916 18.359 20.5479 19.0757 20.0606 19.821C19.5733 20.5663 18.8853 21.197 17.9966 21.713C17.1366 22.2003 16.1333 22.444 14.9866 22.444C13.2953 22.444 11.9766 21.8993 11.0306 20.81C10.0846 19.7207 9.61161 18.402 9.61161 16.854C9.61161 14.3313 10.3856 12.0237 11.9336 9.931C13.4816 7.80966 15.6746 6.13266 18.5126 4.89999C21.3793 3.63866 24.7046 3.008 28.4886 3.008C31.4986 3.008 34.0213 3.38066 36.0566 4.12599C38.1206 4.87133 39.6543 5.889 40.6576 7.179C41.6896 8.44033 42.2056 9.85933 42.2056 11.436C42.2056 13.1273 41.6753 14.6467 40.6146 15.994C39.5826 17.3413 38.2639 18.1583 36.6586 18.445C36.2859 18.531 36.0996 18.7173 36.0996 19.004C36.0996 19.1473 36.1569 19.2763 36.2716 19.391C37.6476 20.767 38.3356 22.5587 38.3356 24.766C38.3356 26.8587 37.8769 28.722 36.9596 30.356C36.0423 31.9613 34.8383 33.2083 33.3476 34.097C31.8569 34.9857 30.2659 35.43 28.5746 35.43C26.7113 35.43 25.2206 34.8997 24.1026 33.839C22.9846 32.7783 22.3683 31.345 22.2536 29.539C20.6769 31.9183 18.9569 33.7243 17.0936 34.957C15.2589 36.1897 13.3239 36.806 11.2886 36.806ZM28.9616 26.099C29.9363 26.099 30.7246 25.6977 31.3266 24.895C31.9286 24.0637 32.2296 23.1033 32.2296 22.014C32.2296 21.3833 32.0003 20.853 31.5416 20.423C31.0829 19.9643 30.4093 19.735 29.5206 19.735C28.6033 19.735 27.8723 20.0647 27.3276 20.724C26.7829 21.3833 26.5106 22.1717 26.5106 23.089C26.5106 23.949 26.7113 24.6657 27.1126 25.239C27.5426 25.8123 28.1589 26.099 28.9616 26.099Z" stroke="white" stroke-width="6" mask="url(#path-1-outside-1_716_28)"/>
<path d="M48.8242 11.737C47.6776 11.737 46.7603 11.4933 46.0723 11.006C45.3843 10.5187 45.0402 9.74466 45.0402 8.68399C45.0402 6.04666 46.4736 4.72799 49.3403 4.72799C52.0349 4.72799 53.2819 5.88899 53.0812 8.211C52.8519 10.5617 51.4329 11.737 48.8242 11.737ZM44.0513 35C42.6753 35 41.6719 34.5127 41.0412 33.538C40.4106 32.5633 40.0952 31.259 40.0952 29.625C40.0952 27.647 40.4536 25.5113 41.1702 23.218C42.2309 19.8927 43.2342 17.4417 44.1802 15.865C45.1262 14.2883 46.1869 13.5 47.3623 13.5C48.3369 13.5 48.8242 14.145 48.8242 15.435C48.8242 16.037 48.7382 16.6533 48.5662 17.284C48.3942 17.9147 48.1363 18.6743 47.7923 19.563C47.7349 19.7063 47.6202 20.0503 47.4482 20.595C47.2762 21.1397 47.1329 21.627 47.0182 22.057C46.9322 22.487 46.8893 22.874 46.8893 23.218C46.8893 23.906 47.0613 24.4363 47.4053 24.809C47.7493 25.1817 48.2222 25.368 48.8242 25.368C49.4262 25.368 49.9422 25.196 50.3722 24.852C50.8309 24.4793 51.3039 23.9347 51.7913 23.218C51.9633 22.96 52.1926 22.831 52.4793 22.831C52.8519 22.831 53.1816 23.003 53.4683 23.347C53.7836 23.6623 53.8696 23.9633 53.7262 24.25C53.4682 24.68 53.1673 25.282 52.8232 26.056C52.0206 27.7187 51.2609 29.152 50.5443 30.356C49.8276 31.56 48.9103 32.635 47.7923 33.581C46.6743 34.527 45.4273 35 44.0513 35Z" stroke="white" stroke-width="6" mask="url(#path-1-outside-1_716_28)"/>
<path d="M68.7373 23.218C68.9093 22.96 69.1386 22.831 69.4253 22.831C69.8266 22.831 70.1706 23.003 70.4573 23.347C70.7726 23.691 70.8443 24.0063 70.6723 24.293L69.8553 25.884C69.0526 27.5467 68.2643 28.9943 67.4903 30.227C66.7449 31.4597 65.7703 32.5633 64.5663 33.538C63.3909 34.5127 62.0579 35 60.5673 35C58.9333 35 57.7293 34.57 56.9553 33.71C56.2099 32.8213 55.8373 31.7463 55.8373 30.485C55.8373 29.453 55.9949 28.4353 56.3103 27.432C56.6543 26.4 57.1273 25.2103 57.7293 23.863C58.1306 22.9457 58.4173 22.229 58.5893 21.713C58.7613 21.197 58.8473 20.7527 58.8473 20.38C58.8473 20.0933 58.6609 19.735 58.2883 19.305C57.9156 18.875 57.3423 18.5167 56.5683 18.23C56.0523 19.348 55.0919 21.369 53.6873 24.293C53.5726 24.5797 53.3433 24.723 52.9993 24.723C52.6839 24.723 52.3686 24.6083 52.0533 24.379C51.7666 24.121 51.6233 23.8487 51.6233 23.562C51.6233 23.4187 51.6663 23.304 51.7523 23.218C52.5263 22.1287 53.4006 20.251 54.3753 17.585C53.9166 17.413 53.5583 17.155 53.3003 16.811C53.0709 16.4383 52.9563 15.8937 52.9563 15.177C52.9563 14.231 53.3146 13.3567 54.0313 12.554C54.7766 11.7227 55.6939 11.307 56.7833 11.307C58.0733 11.307 59.3489 11.565 60.6103 12.081C61.9003 12.597 62.9466 13.2563 63.7493 14.059C64.5519 14.833 64.9533 15.607 64.9533 16.381C64.9533 16.9257 64.8673 17.4417 64.6953 17.929C64.5519 18.4163 64.3369 19.004 64.0503 19.692C63.7349 20.4373 63.4913 21.0823 63.3193 21.627C63.1759 22.143 63.1043 22.702 63.1043 23.304C63.1043 23.9347 63.3193 24.4507 63.7493 24.852C64.1793 25.2247 64.8529 25.411 65.7703 25.411C66.3723 25.411 66.8883 25.239 67.3183 24.895C67.7769 24.5223 68.2499 23.9633 68.7373 23.218Z" stroke="white" stroke-width="6" mask="url(#path-1-outside-1_716_28)"/>
<path d="M72.7591 35C71.1251 35 69.8925 34.441 69.0611 33.323C68.2585 32.205 67.8571 30.7287 67.8571 28.894C67.8571 26.6293 68.2871 24.3073 69.1471 21.928C70.0071 19.52 71.2685 17.5133 72.9311 15.908C74.6225 14.3027 76.6291 13.5 78.9511 13.5C79.9258 13.5 80.6568 13.629 81.1441 13.887C81.6315 14.145 82.0471 14.5033 82.3911 14.962C82.7351 15.3633 83.0505 15.564 83.3371 15.564C83.5091 15.564 83.6381 15.435 83.7241 15.177C83.8388 14.919 83.9965 14.446 84.1971 13.758C84.6558 12.038 85.2148 10.3753 85.8741 8.77C86.6195 6.96399 87.3648 5.73133 88.1101 5.07199C88.8555 4.41266 89.6151 4.08299 90.3891 4.08299C90.8765 4.08299 91.2491 4.24066 91.5071 4.556C91.7938 4.87133 91.9371 5.31566 91.9371 5.88899C91.9371 6.54833 91.7508 7.29366 91.3781 8.125L86.5191 20.552C85.9458 21.7273 85.6591 22.745 85.6591 23.605C85.6591 24.809 86.2468 25.411 87.4221 25.411C88.7695 25.411 89.9018 24.68 90.8191 23.218C90.9911 22.96 91.2205 22.831 91.5071 22.831C91.8798 22.831 92.2095 23.003 92.4961 23.347C92.8115 23.691 92.8975 24.0063 92.7541 24.293L91.7221 26.357C90.8335 28.1917 90.0451 29.6823 89.3571 30.829C88.6691 31.947 87.8378 32.9217 86.8631 33.753C85.8885 34.5843 84.7705 35 83.5091 35C82.3338 35 81.4021 34.5413 80.7141 33.624C80.0548 32.7067 79.7251 31.517 79.7251 30.055C79.7251 29.797 79.7538 29.3527 79.8111 28.722H79.6391C78.6931 30.5853 77.6181 32.1047 76.4141 33.28C75.2101 34.4267 73.9918 35 72.7591 35ZM76.6721 26.099C77.3601 26.099 77.9765 25.8983 78.5211 25.497C79.0945 25.067 79.5388 24.5367 79.8541 23.906C80.1695 23.2753 80.3271 22.659 80.3271 22.057C80.3271 21.3977 80.1265 20.853 79.7251 20.423C79.3525 19.993 78.7648 19.778 77.9621 19.778C76.9588 19.778 76.1131 20.1937 75.4251 21.025C74.7658 21.8563 74.4361 22.7737 74.4361 23.777C74.4361 24.465 74.6081 25.024 74.9521 25.454C75.3248 25.884 75.8981 26.099 76.6721 26.099Z" stroke="white" stroke-width="6" mask="url(#path-1-outside-1_716_28)"/>
<path d="M95.535 36.806C93.8724 36.806 92.482 36.462 91.364 35.774C90.246 35.086 89.429 34.1973 88.913 33.108C88.3684 32.0187 88.096 30.8433 88.096 29.582C88.096 28.4067 88.3397 27.2743 88.827 26.185C89.3144 25.0957 89.988 24.2213 90.848 23.562C91.708 22.9027 92.697 22.573 93.815 22.573C93.987 22.573 94.1304 22.6303 94.245 22.745C94.3884 22.831 94.46 22.9457 94.46 23.089C94.46 24.035 94.8613 24.809 95.664 25.411C96.4667 25.9843 97.47 26.271 98.674 26.271C100.136 26.271 101.612 25.6547 103.103 24.422C104.594 23.1893 105.812 21.3547 106.758 18.918L107.231 17.714C107.432 17.1693 107.718 16.4097 108.091 15.435C108.464 14.4317 108.779 13.6003 109.037 12.941C109.553 11.565 110.485 10.877 111.832 10.877C113.151 10.877 113.81 11.393 113.81 12.425C113.81 12.8837 113.652 13.543 113.337 14.403C113.05 15.2343 112.62 16.381 112.047 17.843C111.359 19.5343 110.829 20.9103 110.456 21.971C110.112 23.0317 109.94 23.8917 109.94 24.551C109.94 25.153 110.112 25.6403 110.456 26.013C110.8 26.357 111.316 26.529 112.004 26.529C113.208 26.529 114.297 25.9843 115.272 24.895C116.275 23.8057 117.049 22.4297 117.594 20.767C118.167 19.0757 118.454 17.37 118.454 15.65C118.454 13.586 117.866 11.9233 116.691 10.662C115.544 9.40066 113.595 8.77 110.843 8.77C108.607 8.77 106.701 9.31466 105.124 10.404C103.576 11.4647 102.802 13.027 102.802 15.091C102.802 15.7217 102.96 16.252 103.275 16.682C103.59 17.0833 103.977 17.284 104.436 17.284C104.637 17.3127 104.737 17.4703 104.737 17.757C104.737 18.2443 104.465 18.9037 103.92 19.735C103.375 20.5663 102.644 21.2973 101.727 21.928C100.838 22.5587 99.8637 22.874 98.803 22.874C97.1117 22.874 95.793 22.272 94.847 21.068C93.901 19.8353 93.428 18.3447 93.428 16.596C93.428 14.1593 94.1447 11.909 95.578 9.84499C97.0114 7.75233 99.0037 6.08966 101.555 4.85699C104.106 3.62433 106.987 3.008 110.198 3.008C115.329 3.008 119.056 4.28366 121.378 6.835C123.7 9.38633 124.861 12.683 124.861 16.725C124.861 19.735 124.259 22.702 123.055 25.626C121.88 28.5213 120.303 30.8863 118.325 32.721C116.347 34.527 114.24 35.43 112.004 35.43C110.255 35.43 108.851 34.8997 107.79 33.839C106.758 32.7783 106.185 31.345 106.07 29.539C104.837 31.8323 103.318 33.624 101.512 34.914C99.706 36.1753 97.7137 36.806 95.535 36.806Z" stroke="white" stroke-width="6" mask="url(#path-1-outside-1_716_28)"/>
<path d="M146.294 23.218C146.409 23.0173 146.624 22.917 146.939 22.917C147.341 22.917 147.699 23.0603 148.014 23.347C148.33 23.6337 148.402 23.949 148.23 24.293C147.427 25.9843 146.438 27.389 145.262 28.507C144.087 29.625 142.568 30.184 140.704 30.184H140.189C139.099 31.6747 137.809 32.85 136.318 33.71C134.856 34.57 133.337 35 131.76 35C129.782 35 128.177 34.355 126.945 33.065C125.712 31.7463 125.095 29.9833 125.095 27.776C125.095 25.5973 125.612 23.4043 126.644 21.197C127.704 18.961 129.137 17.1263 130.943 15.693C132.749 14.231 134.742 13.5 136.921 13.5C138.813 13.5 140.332 14.102 141.479 15.306C142.625 16.4813 143.199 18.3447 143.199 20.896C143.199 22.4153 142.983 23.8917 142.553 25.325H142.855C144.173 25.325 145.32 24.6227 146.294 23.218ZM134.212 26.099C134.9 26.099 135.516 25.8983 136.061 25.497C136.634 25.067 137.078 24.5367 137.393 23.906C137.709 23.2753 137.867 22.659 137.867 22.057C137.867 21.3977 137.666 20.853 137.264 20.423C136.892 19.993 136.304 19.778 135.501 19.778C134.498 19.778 133.653 20.1937 132.965 21.025C132.305 21.8563 131.975 22.7737 131.975 23.777C131.975 24.465 132.148 25.024 132.492 25.454C132.864 25.884 133.438 26.099 134.212 26.099Z" stroke="white" stroke-width="6" mask="url(#path-1-outside-1_716_28)"/>
<path d="M167.992 23.218C168.106 23.0173 168.321 22.917 168.637 22.917C169.038 22.917 169.396 23.0603 169.712 23.347C170.027 23.6337 170.099 23.949 169.927 24.293L169.067 26.099C168.149 28.1057 167.361 29.6967 166.702 30.872C166.042 32.0473 165.254 33.0363 164.337 33.839C163.448 34.613 162.43 35 161.284 35C160.653 35 160.151 34.6847 159.779 34.054C158.403 38.4113 156.869 41.5217 155.178 43.385C153.486 45.277 151.408 46.223 148.943 46.223C146.678 46.223 144.929 45.6353 143.697 44.46C142.435 43.2847 141.805 41.6507 141.805 39.558C141.805 38.2393 142.048 37.107 142.536 36.161C142.994 35.2437 143.51 34.5987 144.084 34.226C144.628 33.8247 144.915 33.796 144.944 34.14C145.058 35.2293 145.531 36.0893 146.363 36.72C147.223 37.3793 148.369 37.7233 149.803 37.752C151.064 37.752 152.268 37.3363 153.415 36.505C154.59 35.7023 155.522 34.6847 156.21 33.452C156.926 32.1907 157.285 30.9293 157.285 29.668C157.285 29.324 157.156 29.152 156.898 29.152C156.611 29.152 156.353 29.367 156.124 29.797C155.55 31.259 154.719 32.4343 153.63 33.323C152.54 34.183 151.437 34.613 150.319 34.613C148.857 34.613 147.667 34.0683 146.75 32.979C145.861 31.8897 145.417 30.528 145.417 28.894C145.417 26.6293 145.847 24.3073 146.707 21.928C147.567 19.52 148.828 17.5133 150.491 15.908C152.182 14.3027 154.189 13.5 156.511 13.5C157.485 13.5 158.216 13.6147 158.704 13.844C159.191 14.0447 159.607 14.317 159.951 14.661C160.323 14.9763 160.639 15.134 160.897 15.134C161.183 15.134 161.427 15.0767 161.628 14.962C161.857 14.8473 162.115 14.6753 162.402 14.446C162.774 14.1307 163.118 13.9013 163.434 13.758C163.749 13.586 164.15 13.5 164.638 13.5C165.641 13.5 166.143 14.0303 166.143 15.091C166.143 15.4637 166.057 15.8793 165.885 16.338C165.713 16.768 165.426 17.3843 165.025 18.187C164.05 20.2223 163.262 22.1287 162.66 23.906C162.516 24.5367 162.445 25.0097 162.445 25.325C162.445 25.8983 162.574 26.314 162.832 26.572C163.09 26.83 163.419 26.959 163.821 26.959C164.881 26.959 166.272 25.712 167.992 23.218ZM154.232 26.099C154.92 26.099 155.536 25.8983 156.081 25.497C156.654 25.067 157.098 24.5367 157.414 23.906C157.729 23.2753 157.887 22.659 157.887 22.057C157.887 21.3977 157.686 20.853 157.285 20.423C156.912 19.993 156.324 19.778 155.522 19.778C154.518 19.778 153.673 20.1937 152.985 21.025C152.325 21.8563 151.996 22.7737 151.996 23.777C151.996 24.465 152.168 25.024 152.512 25.454C152.884 25.884 153.458 26.099 154.232 26.099Z" stroke="white" stroke-width="6" mask="url(#path-1-outside-1_716_28)"/>
</svg>
